<svg width="32" height="32" viewBox="0 0 32 32" fill="none" xmlns="http://www.w3.org/2000/svg">
  <!-- Fundo circular laranja -->
  <circle cx="16" cy="16" r="16" fill="#eca20c"/>
  
  <!-- Símbolo do Pilates - Figura estilizada -->
  <g transform="translate(6, 6)">
    <!-- Corpo principal -->
    <path d="M10 4C11.1 4 12 4.9 12 6C12 7.1 11.1 8 10 8C8.9 8 8 7.1 8 6C8 4.9 8.9 4 10 4Z" fill="white"/>
    
    <!-- Braços em movimento -->
    <path d="M6 10C6 9.4 6.4 9 7 9H13C13.6 9 14 9.4 14 10C14 10.6 13.6 11 13 11H7C6.4 11 6 10.6 6 10Z" fill="white"/>
    
    <!-- Tronco -->
    <rect x="9" y="8" width="2" height="6" rx="1" fill="white"/>
    
    <!-- Pernas em posição de exercício -->
    <path d="M7 14L9 16L11 14L13 16" stroke="white" stroke-width="1.5" stroke-linecap="round" fill="none"/>
    
    <!-- Elemento de movimento/energia -->
    <circle cx="16" cy="6" r="1.5" fill="white" opacity="0.8"/>
    <circle cx="4" cy="10" r="1" fill="white" opacity="0.6"/>
    <circle cx="16" cy="14" r="1" fill="white" opacity="0.6"/>
  </g>
  
  <!-- Elementos decorativos de energia -->
  <path d="M24 8L26 6L24 4" stroke="white" stroke-width="1.5" stroke-linecap="round" fill="none" opacity="0.7"/>
  <path d="M8 28L6 26L8 24" stroke="white" stroke-width="1.5" stroke-linecap="round" fill="none" opacity="0.7"/>
</svg>